<?xml version="1.0" standalone="no"?>
<!DOCTYPE svg PUBLIC "-//W3C//DTD SVG 20010904//EN"
 "http://www.w3.org/TR/2001/REC-SVG-20010904/DTD/svg10.dtd">
<svg version="1.0" xmlns="http://www.w3.org/2000/svg"
 width="300.000000pt" height="140.000000pt" viewBox="0 0 300.000000 140.000000"
 preserveAspectRatio="xMidYMid meet">
<metadata>
Created by potrace 1.10, written by Peter Selinger 2001-2011
</metadata>
<g transform="translate(0.000000,140.000000) scale(0.100000,-0.100000)"
fill="#000000" stroke="none">
<path d="M135 1390 c-8 -13 -9 -96 -1 -108 3 -6 21 -18 38 -26 29 -15 33 -15
49 0 10 9 17 19 15 23 -2 3 0 15 4 26 14 38 -84 119 -105 85z m95 -87 c0 -3
-7 -3 -15 1 -12 4 -14 0 -9 -19 8 -31 -11 -33 -21 -2 -4 13 -8 17 -12 10 -12
-30 -23 -9 -23 45 l0 57 40 -43 c22 -24 40 -45 40 -49z"/>
<path d="M1157 1203 c-16 -15 -4 -23 35 -23 23 0 38 3 35 7 -4 3 -20 6 -37 5
-17 0 -28 4 -25 9 7 10 1 12 -8 2z"/>
<path d="M955 1190 c-3 -5 -1 -10 4 -10 6 0 11 5 11 10 0 6 -2 10 -4 10 -3 0
-8 -4 -11 -10z"/>
<path d="M1045 1190 c-3 -5 1 -10 9 -10 9 0 16 5 16 10 0 6 -4 10 -9 10 -6 0
-13 -4 -16 -10z"/>
<path d="M1090 1190 c8 -5 24 -10 34 -10 26 0 18 6 -19 14 -22 5 -26 4 -15 -4z"/>
<path d="M1275 1190 c-28 -5 -9 -8 64 -9 57 0 102 2 98 5 -9 9 -117 11 -162 4z"/>
<path d="M1460 1190 c-19 -12 -1 -17 65 -19 47 -1 56 1 42 10 -10 6 -23 9 -30
6 -7 -2 -24 -1 -38 3 -15 5 -32 4 -39 0z"/>
<path d="M993 1183 c9 -2 23 -2 30 0 6 3 -1 5 -18 5 -16 0 -22 -2 -12 -5z"/>
<path d="M818 1173 c6 -2 18 -2 25 0 6 3 1 5 -13 5 -14 0 -19 -2 -12 -5z"/>
<path d="M1634 1169 c-4 -8 -3 -9 4 -5 6 4 21 2 33 -5 17 -9 20 -8 17 3 -6 17
-44 23 -54 7z"/>
<path d="M1706 1167 c3 -9 22 -21 42 -27 44 -12 68 -13 58 -2 -8 7 -14 9 -47
11 -12 1 -17 5 -13 13 4 7 3 8 -5 4 -6 -4 -19 -2 -27 5 -12 10 -13 9 -8 -4z"/>
<path d="M850 1159 c-36 -5 -78 -7 -95 -4 -23 4 -27 3 -15 -6 12 -9 11 -10 -7
-6 -13 3 -23 1 -23 -5 0 -6 -15 -8 -34 -6 -19 2 -33 1 -31 -3 4 -6 -62 -29
-84 -29 -7 0 -27 -11 -45 -25 -18 -14 -39 -25 -46 -25 -7 0 -10 -3 -7 -6 4 -4
-4 -19 -17 -35 -13 -15 -34 -51 -47 -79 -12 -27 -27 -50 -31 -50 -5 0 -7 -4
-3 -10 3 -5 -8 -44 -25 -87 -16 -43 -30 -83 -30 -90 0 -7 -6 -10 -14 -7 -11 4
-14 -30 -15 -190 -1 -125 3 -196 9 -196 6 0 10 -7 10 -15 0 -8 5 -15 12 -15 6
0 8 -3 5 -6 -20 -20 107 -142 135 -131 8 4 7 6 -4 6 -10 1 -18 6 -18 11 0 6
-6 10 -13 10 -27 0 -127 146 -127 186 0 27 16 14 29 -24 19 -53 71 -121 105
-139 15 -8 25 -10 22 -4 -4 6 -2 11 3 11 6 0 11 -6 11 -14 0 -19 98 -52 112
-38 6 6 -9 12 -41 16 -28 4 -51 11 -51 17 0 6 6 7 13 3 8 -5 9 -4 2 3 -5 6
-27 16 -47 23 -21 6 -47 23 -58 38 -11 15 -23 32 -27 37 -12 15 -41 105 -49
150 -14 81 1 268 24 299 5 6 19 40 32 76 64 181 132 263 242 294 32 9 63 14
68 11 4 -3 21 0 37 6 36 15 44 17 133 28 73 10 649 6 720 -4 19 -2 58 -7 87
-10 110 -12 250 -62 293 -105 11 -11 20 -16 20 -10 0 5 19 -1 43 -14 23 -13
85 -47 137 -76 52 -29 102 -58 111 -66 8 -8 18 -14 21 -14 4 0 25 -17 48 -37
22 -21 54 -45 70 -54 16 -9 27 -19 23 -23 -3 -3 0 -6 8 -6 8 0 25 -16 38 -35
13 -19 28 -35 33 -35 5 0 7 -4 3 -9 -3 -5 -1 -12 5 -16 6 -4 8 -11 5 -16 -4
-5 -2 -9 4 -9 5 0 12 6 15 13 3 6 3 2 0 -10 -6 -27 24 -95 39 -86 6 4 7 1 1
-8 -4 -8 -7 -25 -6 -39 2 -14 -2 -38 -7 -54 -7 -17 -7 -25 -1 -21 6 3 10 1 10
-5 0 -6 -7 -13 -15 -16 -11 -4 -13 -13 -9 -28 4 -11 3 -18 -1 -14 -12 11 -56
-58 -49 -75 7 -20 -54 -78 -110 -102 -25 -11 -46 -23 -46 -27 0 -4 8 -4 18 0
76 35 96 46 127 78 20 19 43 53 51 75 9 21 20 39 26 39 5 0 6 5 3 10 -3 6 -1
10 4 10 6 0 11 11 11 25 0 14 4 25 10 25 5 0 7 7 4 15 -4 8 -7 48 -8 88 -1 52
-5 71 -14 69 -6 -1 -11 1 -11 5 1 5 0 11 -1 16 -5 15 -8 27 -9 43 0 8 -5 12
-11 9 -5 -3 -10 1 -10 9 0 9 -4 16 -10 16 -5 0 -10 8 -10 19 0 22 -23 44 -35
33 -5 -4 -5 -2 -2 4 8 13 -27 57 -37 47 -3 -3 -6 -1 -6 6 0 8 -6 11 -16 7 -12
-5 -15 -2 -10 11 4 10 4 14 0 10 -4 -4 -13 1 -21 11 -13 15 -13 15 -3 -5 14
-31 7 -29 -35 8 -19 17 -35 40 -35 50 0 10 -5 19 -11 19 -6 0 -17 7 -26 16 -9
8 -21 13 -28 10 -7 -2 -16 5 -20 17 -6 22 -6 22 -15 2 -7 -16 -9 -17 -9 -3 -1
9 -11 20 -23 24 -12 3 -30 15 -41 25 -19 17 -77 43 -77 33 0 -2 11 -9 25 -14
14 -5 25 -15 25 -22 0 -8 -3 -9 -8 -3 -4 6 -20 16 -35 23 -24 10 -26 15 -17
32 9 18 8 19 -12 11 -28 -10 -50 -3 -42 12 5 9 3 8 -6 0 -10 -10 -19 -8 -42 8
-15 11 -28 27 -28 35 0 8 -5 14 -11 14 -5 0 -7 -4 -4 -10 9 -15 -18 -12 -52 5
-37 19 -195 52 -283 59 -121 11 -655 14 -720 5z m1285 -199 c3 -5 1 -10 -4
-10 -6 0 -11 5 -11 10 0 6 2 10 4 10 3 0 8 -4 11 -10z m135 -80 c0 -5 -2 -10
-4 -10 -3 0 -8 5 -11 10 -3 6 -1 10 4 10 6 0 11 -4 11 -10z m185 -140 c3 -5 1
-10 -4 -10 -6 0 -11 5 -11 10 0 6 2 10 4 10 3 0 8 -4 11 -10z"/>
<path d="M565 1130 c-8 -13 5 -13 25 0 13 8 13 10 -2 10 -9 0 -20 -4 -23 -10z"/>
<path d="M1063 1123 c9 -2 23 -2 30 0 6 3 -1 5 -18 5 -16 0 -22 -2 -12 -5z"/>
<path d="M1293 1115 c-42 -17 -10 -30 72 -29 39 1 62 -1 53 -3 -10 -2 -18 -9
-18 -15 0 -6 10 -8 25 -4 18 5 25 2 25 -9 0 -8 4 -15 8 -15 16 0 21 13 12 29
-6 13 -4 17 11 18 16 2 19 -2 13 -19 -5 -16 -3 -18 7 -12 8 5 21 9 29 9 8 0
21 4 28 9 8 4 23 1 37 -8 26 -17 74 -24 92 -13 6 4 17 0 24 -9 8 -10 21 -13
37 -9 13 3 21 2 18 -3 -6 -11 29 -25 55 -23 9 1 19 -7 22 -19 4 -17 13 -21 42
-20 3 0 15 -9 28 -21 12 -11 40 -29 62 -39 40 -18 105 -34 105 -25 0 2 -24 16
-53 30 -32 15 -58 35 -65 50 -6 14 -18 25 -27 25 -8 0 -15 5 -15 10 0 6 -8 5
-20 -2 -16 -10 -23 -9 -42 8 -13 11 -42 26 -64 32 -23 7 -47 19 -54 27 -20 24
-86 38 -109 23 -15 -9 -25 -9 -46 0 -14 7 -64 12 -110 12 -47 0 -85 4 -85 9 0
14 -67 18 -97 6z"/>
<path d="M1840 1116 c14 -9 32 -15 40 -15 13 0 13 1 0 8 -8 5 -26 12 -40 15
l-25 7 25 -15z"/>
<path d="M505 1095 c-16 -14 -25 -25 -20 -25 6 1 24 12 40 25 17 14 26 25 20
25 -5 -1 -23 -12 -40 -25z"/>
<path d="M1220 1116 c0 -2 9 -6 20 -9 11 -3 20 -1 20 4 0 5 -9 9 -20 9 -11 0
-20 -2 -20 -4z"/>
<path d="M803 1098 c1 -6 -7 -13 -18 -15 -106 -18 -193 -59 -171 -80 4 -4 11
-1 16 7 6 8 10 12 10 7 0 -4 17 0 38 9 20 9 54 16 74 15 26 -1 40 4 47 16 6
10 11 15 11 11 0 -4 12 -3 26 2 37 14 176 24 229 15 l46 -6 -42 -42 c-41 -41
-69 -91 -69 -123 0 -9 15 -31 34 -50 18 -18 31 -36 27 -40 -3 -4 0 -4 7 0 8 5
18 1 25 -8 12 -16 21 -19 99 -35 21 -5 43 -13 50 -18 12 -10 26 -13 118 -28
39 -6 31 0 -13 9 -15 4 -25 11 -22 16 3 5 -1 7 -9 4 -8 -3 -37 1 -63 10 -26 8
-61 18 -77 20 -37 7 -43 13 -24 29 19 15 38 90 38 151 0 43 -2 47 -34 60 -25
10 -34 20 -33 35 1 17 8 21 32 20 l30 0 -25 -11 -25 -11 23 -5 c13 -2 36 2 52
8 22 9 32 9 49 -2 12 -7 19 -19 16 -25 -2 -7 2 -13 9 -13 8 0 16 -5 18 -11 2
-7 10 -10 17 -8 8 3 1 18 -21 43 l-34 39 -159 9 c-112 7 -176 6 -214 -1 -37
-8 -58 -8 -65 -1 -14 14 -27 13 -23 -2z m-16 -44 c-3 -3 -12 -4 -19 -1 -8 3
-5 6 6 6 11 1 17 -2 13 -5z m349 -30 c19 -9 34 -20 34 -25 0 -13 -9 -11 -26 6
-22 22 -58 4 -82 -42 -16 -28 0 -70 30 -83 19 -7 28 -3 51 21 18 20 27 24 27
14 0 -21 -38 -95 -49 -95 -4 0 -20 11 -35 25 -14 13 -26 21 -26 18 0 -3 -11 7
-24 22 -19 22 -22 33 -16 51 18 47 57 102 73 103 5 1 24 -6 43 -15z m2 -63 c2
-20 -3 -40 -12 -50 -9 -10 -15 -20 -14 -22 2 -2 -5 4 -14 13 -22 21 -23 42 -2
74 22 32 38 26 42 -15z"/>
<path d="M1930 1087 c0 -9 31 -37 41 -37 5 0 9 8 8 18 0 11 -2 12 -6 4 -4 -10
-9 -9 -24 4 -10 9 -19 14 -19 11z"/>
<path d="M1367 1059 c-9 -5 -22 -7 -27 -4 -5 3 -7 -1 -4 -9 5 -14 9 -13 30 1
33 21 34 31 1 12z"/>
<path d="M1847 1063 c-12 -12 -7 -33 8 -33 17 0 19 9 7 28 -5 7 -11 9 -15 5z"/>
<path d="M576 1051 c-4 -5 -4 -16 -1 -24 4 -9 -16 -36 -51 -71 -39 -40 -53
-61 -46 -68 13 -13 35 -1 26 14 -4 7 -2 8 4 4 7 -4 12 -18 12 -30 0 -13 16
-47 35 -75 19 -28 35 -57 35 -66 0 -8 5 -15 11 -15 6 0 8 9 3 23 -4 12 -8 30
-8 40 0 9 -4 17 -9 17 -17 0 -37 29 -37 54 0 14 -4 28 -10 31 -14 9 -12 38 3
59 12 16 13 13 10 -20 -4 -38 -4 -39 11 -14 8 14 12 28 10 32 -2 3 0 9 6 13 6
4 8 11 5 16 -4 5 -2 9 2 9 5 0 9 8 9 18 0 9 4 27 8 40 5 16 3 22 -8 22 -8 0
-17 -4 -20 -9z"/>
<path d="M422 1030 c-7 -11 -8 -20 -3 -20 9 0 24 30 18 36 -1 2 -8 -6 -15 -16z"/>
<path d="M998 1043 c6 -2 18 -2 25 0 6 3 1 5 -13 5 -14 0 -19 -2 -12 -5z"/>
<path d="M1490 1011 c-43 -38 -50 -61 -13 -47 15 6 15 8 3 16 -13 8 -13 10 1
10 9 0 24 9 34 20 22 25 38 26 33 3 -2 -10 -9 -18 -15 -18 -7 0 -20 -10 -28
-22 -9 -13 -24 -23 -34 -23 -20 0 -22 -34 -3 -67 6 -12 9 -29 5 -39 -4 -12 -2
-15 8 -12 8 3 13 13 11 22 -2 9 1 15 5 14 4 -2 9 1 10 6 1 5 7 12 13 16 7 4 9
13 6 19 -4 6 -12 9 -17 6 -5 -4 -9 -1 -9 4 0 6 4 11 9 11 5 0 11 8 13 18 5 18
54 49 63 40 3 -3 8 -18 11 -33 6 -33 -15 -67 -56 -91 -33 -20 -42 -41 -10 -24
11 6 20 7 20 2 0 -14 -28 -34 -39 -28 -5 3 -12 -1 -15 -10 -4 -9 -13 -14 -21
-10 -8 3 -15 1 -15 -4 0 -11 13 -13 45 -10 25 2 78 56 70 70 -4 6 -1 9 5 8 35
-8 72 101 44 129 -8 8 -12 19 -8 24 10 17 -17 39 -50 39 -22 0 -44 -12 -76
-39z m-4 -125 c-2 -6 -5 -3 -5 7 -1 9 -5 17 -11 17 -5 0 -7 7 -3 17 5 14 8 12
15 -7 5 -13 7 -28 4 -34z"/>
<path d="M926 1025 c-3 -9 -11 -13 -17 -9 -8 5 -9 3 -4 -5 6 -10 11 -9 23 3 9
8 13 18 10 21 -3 3 -8 -1 -12 -10z"/>
<path d="M1670 1023 c0 -7 33 -32 43 -33 16 0 5 16 -18 27 -14 6 -25 9 -25 6z"/>
<path d="M727 1007 c-15 -10 -12 -12 20 -14 21 -1 31 1 23 4 -8 3 -18 10 -21
14 -3 5 -13 3 -22 -4z"/>
<path d="M1355 1010 c3 -5 8 -10 11 -10 2 0 4 5 4 10 0 6 -5 10 -11 10 -5 0
-7 -4 -4 -10z"/>
<path d="M1385 1010 c4 -6 11 -8 16 -5 14 9 11 15 -7 15 -8 0 -12 -5 -9 -10z"/>
<path d="M1237 996 c-4 -10 -1 -13 9 -9 7 3 14 9 14 14 0 14 -17 10 -23 -5z"/>
<path d="M1745 1000 c-18 -8 -17 -9 8 -9 16 -1 26 3 22 9 -3 6 -7 10 -8 9 -1
0 -11 -4 -22 -9z"/>
<path d="M386 970 c-9 -17 -13 -30 -8 -30 10 0 37 48 31 55 -3 2 -13 -9 -23
-25z"/>
<path d="M496 992 c-3 -5 1 -9 9 -9 8 0 15 4 15 9 0 4 -4 8 -9 8 -6 0 -12 -4
-15 -8z"/>
<path d="M668 983 c7 -3 16 -2 19 1 4 3 -2 6 -13 5 -11 0 -14 -3 -6 -6z"/>
<path d="M1807 979 c7 -7 15 -10 18 -7 3 3 -2 9 -12 12 -14 6 -15 5 -6 -5z"/>
<path d="M1281 956 c4 -4 17 -9 29 -11 13 -3 27 -10 32 -17 6 -9 8 -7 6 6 -2
14 -13 21 -38 24 -19 2 -32 1 -29 -2z"/>
<path d="M1240 941 c0 -6 4 -13 10 -16 6 -3 7 1 4 9 -7 18 -14 21 -14 7z"/>
<path d="M1752 920 c0 -14 2 -19 5 -12 2 6 2 18 0 25 -3 6 -5 1 -5 -13z"/>
<path d="M2060 926 c0 -7 8 -16 19 -19 14 -3 17 0 14 14 -6 22 -33 26 -33 5z"/>
<path d="M1840 916 c-7 -9 -16 -13 -21 -10 -5 3 -9 -2 -9 -10 0 -8 -14 -31
-31 -51 -17 -19 -29 -35 -25 -35 8 0 53 47 59 62 2 7 8 9 13 5 5 -4 4 -11 -2
-15 -6 -4 -17 -22 -25 -39 -9 -21 -21 -33 -34 -33 -15 -1 -11 -5 13 -15 17 -8
32 -19 32 -25 0 -6 16 -9 40 -8 22 2 40 5 40 8 0 3 14 14 30 23 17 10 30 25
30 33 0 20 -17 18 -42 -6 -25 -23 -47 -25 -72 -7 -18 13 -18 15 -1 41 10 15
25 31 34 35 23 12 81 1 81 -15 0 -8 5 -14 10 -14 6 0 10 6 10 12 0 7 10 -2 23
-19 23 -34 41 -44 31 -18 -7 17 11 21 21 5 5 -8 11 -7 20 0 15 13 55 -3 55
-21 0 -6 5 -7 10 -4 16 10 41 -61 34 -93 -4 -15 -11 -30 -17 -33 -14 -10 3
-31 19 -25 8 3 14 -1 14 -8 0 -8 -9 -16 -21 -19 -13 -4 -18 -10 -13 -18 4 -7
6 -34 5 -61 -1 -32 2 -47 9 -43 6 3 8 11 5 16 -4 5 -1 9 5 9 7 0 10 -6 7 -14
-5 -13 25 -46 42 -46 5 0 11 -6 14 -12 3 -10 7 -10 17 -1 10 9 6 17 -18 40
-26 24 -31 38 -37 95 -6 60 -4 69 15 88 16 16 28 20 51 15 32 -7 40 8 12 21
-21 8 -19 8 -59 1 -27 -5 -31 -3 -27 12 11 44 -44 107 -122 140 -27 11 -42 15
-32 7 9 -7 17 -16 17 -20 0 -12 -33 -6 -49 9 -58 56 -139 86 -161 61z m40 -10
c0 -2 -9 -6 -20 -9 -11 -3 -18 -1 -14 4 5 9 34 13 34 5z"/>
<path d="M660 889 c0 -5 5 -7 10 -4 6 3 10 8 10 11 0 2 -4 4 -10 4 -5 0 -10
-5 -10 -11z"/>
<path d="M2097 884 c-3 -4 11 -18 31 -32 38 -26 61 -45 119 -99 18 -18 42 -33
53 -33 10 0 22 -4 25 -10 3 -5 0 -10 -8 -10 -24 0 -28 -29 -6 -40 10 -6 24 -8
29 -5 5 3 7 0 4 -8 -3 -8 3 -20 12 -28 16 -12 17 -12 11 4 -6 15 -4 16 16 5
19 -10 20 -13 5 -16 -10 -2 -18 -8 -18 -14 0 -6 -6 -6 -15 2 -9 8 -15 8 -15 2
0 -6 -6 -12 -12 -15 -7 -2 -4 -3 7 -1 11 1 30 -6 43 -16 23 -19 30 -50 11 -50
-5 0 -8 4 -4 9 3 5 1 12 -5 16 -5 3 -10 1 -10 -4 0 -6 -8 -11 -17 -11 -13 0
-14 -3 -5 -8 9 -6 6 -14 -13 -32 -14 -13 -25 -31 -25 -41 0 -10 -10 -25 -22
-33 -36 -25 -12 -30 29 -6 23 14 39 18 41 11 4 -13 41 -14 61 -2 8 5 9 11 3
15 -6 3 -13 2 -16 -3 -8 -12 -76 9 -76 24 0 16 33 45 52 45 9 0 18 7 22 15 3
8 10 15 16 15 6 0 9 -3 6 -8 -2 -4 3 -16 11 -27 15 -19 15 -19 8 4 -4 13 -9
31 -10 40 -2 9 -4 18 -5 21 -1 3 -2 14 -2 25 1 17 0 17 -4 3 -6 -19 -44 -25
-44 -8 0 17 54 38 85 32 27 -5 29 -4 16 12 -10 12 -22 15 -42 11 -17 -4 -40 0
-61 11 -33 18 -39 20 -59 23 -5 0 -8 5 -5 10 3 4 25 5 48 1 36 -7 40 -6 26 4
-10 7 -15 16 -11 19 3 4 -1 7 -10 7 -9 0 -22 9 -29 20 -7 11 -22 20 -34 20
-27 0 -51 25 -32 33 8 4 7 6 -4 6 -10 1 -18 7 -18 15 0 7 -13 19 -30 25 -16 6
-43 16 -59 22 -16 6 -32 17 -35 25 -6 15 -18 18 -29 8z"/>
<path d="M418 840 c-9 -16 -14 -31 -10 -34 3 -4 12 8 19 25 17 41 12 46 -9 9z"/>
<path d="M2320 853 c0 -13 29 -38 35 -31 3 3 -4 13 -15 23 -11 10 -20 13 -20
8z"/>
<path d="M500 820 c-13 -8 -12 -10 3 -10 9 0 17 5 17 10 0 12 -1 12 -20 0z"/>
<path d="M445 810 c3 -5 10 -10 16 -10 5 0 9 5 9 10 0 6 -7 10 -16 10 -8 0
-12 -4 -9 -10z"/>
<path d="M1710 800 c0 -5 5 -10 10 -10 6 0 10 5 10 10 0 6 -4 10 -10 10 -5 0
-10 -4 -10 -10z"/>
<path d="M463 785 c-39 -17 -47 -29 -27 -46 19 -15 71 0 66 21 -2 7 2 16 8 20
23 14 -16 18 -47 5z"/>
<path d="M885 789 c4 -5 22 -9 42 -9 45 0 40 5 -10 13 -22 3 -35 2 -32 -4z"/>
<path d="M1407 776 c-4 -10 -1 -13 9 -9 7 3 14 9 14 14 0 14 -17 10 -23 -5z"/>
<path d="M1653 777 c-19 -24 -24 -37 -14 -37 6 0 11 6 11 14 0 8 8 16 18 18
11 2 13 6 6 11 -7 4 -16 1 -21 -6z"/>
<path d="M616 773 c11 -8 25 -37 30 -62 1 -8 11 -21 20 -30 17 -15 17 -15 1
10 -11 18 -13 29 -5 37 14 14 -10 46 -37 50 -12 2 -16 0 -9 -5z"/>
<path d="M2010 770 c0 -6 7 -10 15 -10 8 0 15 2 15 4 0 2 -7 6 -15 10 -8 3
-15 1 -15 -4z"/>
<path d="M525 760 c3 -5 8 -10 11 -10 2 0 4 5 4 10 0 6 -5 10 -11 10 -5 0 -7
-4 -4 -10z"/>
<path d="M1196 763 c-11 -11 -6 -23 9 -23 8 0 15 4 15 9 0 13 -16 22 -24 14z"/>
<path d="M1725 760 c-3 -6 1 -7 9 -4 18 7 21 14 7 14 -6 0 -13 -4 -16 -10z"/>
<path d="M1431 749 c-19 -8 -22 -12 -12 -22 9 -9 14 -9 20 2 5 7 14 10 20 7 6
-4 11 0 11 8 0 18 -5 19 -39 5z"/>
<path d="M384 742 c3 -6 -2 -13 -11 -15 -16 -4 -16 -5 -1 -6 21 -1 32 15 17
25 -7 4 -9 3 -5 -4z"/>
<path d="M1114 739 c-4 -7 0 -9 14 -5 14 5 24 1 31 -11 5 -10 13 -14 18 -10 9
9 -24 37 -43 37 -7 0 -16 -5 -20 -11z"/>
<path d="M1700 730 c0 -5 5 -10 10 -10 6 0 10 5 10 10 0 6 -4 10 -10 10 -5 0
-10 -4 -10 -10z"/>
<path d="M407 715 c-9 -8 -23 -35 -33 -61 -14 -38 -15 -47 -4 -54 11 -7 11
-14 3 -33 -6 -13 -9 -46 -6 -73 2 -27 4 -73 4 -103 0 -55 25 -123 38 -103 8
14 34 10 55 -7 9 -8 20 -10 24 -6 4 4 1 10 -5 12 -7 3 -13 12 -13 20 0 11 -7
14 -24 9 -43 -11 -56 2 -56 55 0 36 4 49 14 49 8 0 48 16 89 35 41 19 79 35
85 35 16 0 33 64 33 126 0 65 -23 107 -61 112 -35 6 -106 -36 -126 -74 -26
-48 -47 -53 -27 -6 8 20 21 44 29 53 26 29 9 42 -19 14z m155 -42 c13 -11 18
-30 18 -65 0 -41 -5 -54 -29 -79 -16 -16 -36 -29 -44 -29 -20 0 -97 -41 -97
-52 0 -4 -5 -8 -10 -8 -6 0 -8 25 -5 68 7 79 40 137 95 164 44 22 49 22 72 1z"/>
<path d="M495 630 c3 -5 11 -10 16 -10 6 0 7 5 4 10 -3 6 -11 10 -16 10 -6 0
-7 -4 -4 -10z"/>
<path d="M530 580 c0 -5 5 -10 10 -10 6 0 10 5 10 10 0 6 -4 10 -10 10 -5 0
-10 -4 -10 -10z"/>
<path d="M470 569 c0 -6 -9 -8 -20 -4 -30 9 -24 -2 9 -19 28 -15 29 -14 29 9
0 14 -4 25 -9 25 -5 0 -9 -5 -9 -11z"/>
<path d="M420 500 c0 -5 5 -10 11 -10 5 0 7 5 4 10 -3 6 -8 10 -11 10 -2 0 -4
-4 -4 -10z"/>
<path d="M1286 721 c5 -5 20 -12 34 -15 l25 -7 -25 15 c-28 17 -50 21 -34 7z"/>
<path d="M1600 720 c0 -5 4 -10 9 -10 6 0 13 5 16 10 3 6 -1 10 -9 10 -9 0
-16 -4 -16 -10z"/>
<path d="M2010 720 c0 -5 5 -10 11 -10 5 0 7 5 4 10 -3 6 -8 10 -11 10 -2 0
-4 -4 -4 -10z"/>
<path d="M1220 712 c0 -5 11 -12 25 -15 16 -3 24 0 22 7 -4 14 -47 21 -47 8z"/>
<path d="M1668 713 c7 -3 16 -2 19 1 4 3 -2 6 -13 5 -11 0 -14 -3 -6 -6z"/>
<path d="M346 702 c-3 -6 -1 -14 5 -17 15 -10 25 3 12 16 -7 7 -13 7 -17 1z"/>
<path d="M1475 657 c-29 -61 -30 -64 -7 -44 22 20 45 74 34 81 -4 2 -16 -15
-27 -37z"/>
<path d="M1525 685 c5 -41 17 -64 31 -58 8 3 14 11 14 18 0 8 9 17 20 20 11 4
18 11 14 16 -3 6 -15 4 -29 -5 -21 -14 -24 -14 -38 7 -14 21 -14 21 -12 2z"/>
<path d="M630 671 c0 -5 5 -13 10 -16 6 -3 10 -2 10 4 0 5 -4 13 -10 16 -5 3
-10 2 -10 -4z"/>
<path d="M1185 670 c3 -5 8 -10 11 -10 2 0 4 5 4 10 0 6 -5 10 -11 10 -5 0 -7
-4 -4 -10z"/>
<path d="M1620 665 c0 -8 2 -15 4 -15 2 0 6 7 10 15 3 8 1 15 -4 15 -6 0 -10
-7 -10 -15z"/>
<path d="M887 633 c-4 -3 -7 -11 -7 -17 0 -6 5 -5 12 2 6 6 9 14 7 17 -3 3 -9
2 -12 -2z"/>
<path d="M1590 633 c1 -18 59 -63 90 -69 24 -5 31 -4 26 4 -4 7 -13 12 -20 12
-7 0 -26 13 -42 30 -27 28 -54 39 -54 23z"/>
<path d="M928 623 c7 -3 16 -2 19 1 4 3 -2 6 -13 5 -11 0 -14 -3 -6 -6z"/>
<path d="M1036 617 c3 -10 9 -15 12 -12 3 3 0 11 -7 18 -10 9 -11 8 -5 -6z"/>
<path d="M1710 620 c-9 -6 -10 -10 -3 -10 6 0 15 5 18 10 8 12 4 12 -15 0z"/>
<path d="M1808 595 c-26 -14 -57 -25 -70 -25 -22 -1 -22 -1 -4 -15 16 -12 23
-12 50 2 17 9 35 22 39 29 4 8 15 14 24 14 14 0 13 -4 -5 -23 -24 -25 -28 -37
-12 -37 6 0 10 7 10 16 0 8 5 12 11 8 6 -3 9 -15 6 -25 -3 -12 0 -19 10 -19
11 0 13 8 10 34 -9 64 -17 69 -69 41z"/>
<path d="M2581 604 c0 -11 3 -14 6 -6 3 7 2 16 -1 19 -3 4 -6 -2 -5 -13z"/>
<path d="M1422 586 c7 -8 16 -12 21 -9 11 7 -2 23 -19 23 -12 0 -12 -2 -2 -14z"/>
<path d="M1502 593 c1 -5 -1 -18 -6 -30 -11 -32 9 -63 36 -55 l22 5 -24 9
c-17 6 -20 12 -12 20 14 14 42 3 42 -17 0 -9 -7 -18 -15 -21 -8 -4 -12 -10 -9
-15 10 -17 31 -9 42 16 11 23 16 25 47 19 19 -3 43 -3 52 1 17 7 16 8 -2 15
-11 5 -35 9 -54 9 -20 1 -45 11 -63 26 -28 24 -60 34 -56 18z"/>
<path d="M1888 593 c7 -3 16 -2 19 1 4 3 -2 6 -13 5 -11 0 -14 -3 -6 -6z"/>
<path d="M636 582 c-3 -5 11 -9 31 -10 40 -2 41 2 1 12 -15 3 -29 2 -32 -2z"/>
<path d="M965 560 c3 -5 8 -10 11 -10 2 0 4 5 4 10 0 6 -5 10 -11 10 -5 0 -7
-4 -4 -10z"/>
<path d="M1371 557 c-6 -8 -8 -17 -5 -20 8 -7 54 14 54 25 0 13 -36 9 -49 -5z"/>
<path d="M1450 551 c-5 -11 -10 -27 -10 -35 0 -19 20 -22 21 -3 0 6 2 22 5 35
5 27 -2 28 -16 3z"/>
<path d="M2320 560 c-12 -8 -10 -10 8 -10 13 0 20 4 17 10 -7 12 -6 12 -25 0z"/>
<path d="M700 550 c0 -5 5 -10 10 -10 6 0 10 5 10 10 0 6 -4 10 -10 10 -5 0
-10 -4 -10 -10z"/>
<path d="M1185 550 c-3 -6 1 -7 9 -4 18 7 21 14 7 14 -6 0 -13 -4 -16 -10z"/>
<path d="M2000 550 c-12 -8 -12 -10 3 -16 22 -8 50 3 42 16 -8 12 -25 13 -45
0z"/>
<path d="M640 543 c8 -3 18 -10 21 -16 4 -5 12 -6 19 -2 16 10 -6 25 -35 24
-14 0 -16 -2 -5 -6z"/>
<path d="M1708 524 c6 -3 12 -12 12 -20 0 -8 5 -14 11 -14 5 0 7 -5 3 -11 -10
-17 16 -28 53 -22 24 4 39 1 53 -12 13 -11 20 -14 20 -6 0 7 5 9 12 5 7 -4 8
-3 4 5 -4 6 -11 9 -16 6 -9 -6 -50 29 -50 41 0 3 8 3 18 0 16 -7 16 -6 0 10
-11 11 -37 18 -75 21 -32 1 -52 0 -45 -3z m69 -36 c1 -10 -5 -18 -13 -18 -8 0
-14 2 -14 4 0 2 -3 11 -6 20 -4 10 0 14 13 13 11 0 20 -9 20 -19z"/>
<path d="M710 510 c0 -7 -21 -10 -52 -8 -31 2 -53 -1 -55 -8 -2 -7 6 -10 23
-6 16 3 29 -1 35 -9 6 -10 9 -10 9 -1 0 6 11 12 25 12 16 0 25 6 25 15 0 8 -2
15 -5 15 -3 0 -5 -5 -5 -10z"/>
<path d="M1288 510 c-70 -9 -92 -24 -84 -61 4 -20 0 -29 -17 -38 -20 -10 -19
-11 13 -9 19 1 44 -1 55 -4 11 -4 37 -9 58 -13 30 -5 37 -3 37 10 0 9 -5 13
-10 10 -6 -4 -35 -1 -65 5 l-55 12 26 31 c24 29 76 52 89 39 9 -9 -17 -32 -36
-32 -11 0 -19 -4 -19 -10 0 -19 44 -10 70 15 17 16 33 23 43 19 9 -3 14 -10
11 -15 -3 -5 0 -9 6 -9 6 0 10 10 8 23 -2 17 -9 22 -31 20 -15 -1 -27 2 -27 8
0 5 -3 8 -7 8 -5 -1 -34 -5 -65 -9z m-38 -35 c-7 -9 -15 -13 -17 -11 -7 7 7
26 19 26 6 0 6 -6 -2 -15z"/>
<path d="M2280 516 c0 -10 28 -13 41 -5 10 6 7 9 -13 9 -16 0 -28 -2 -28 -4z"/>
<path d="M2460 510 c0 -5 4 -10 10 -10 5 0 16 -13 24 -29 14 -26 14 -35 1 -79
-9 -30 -26 -59 -41 -71 -31 -25 -86 -41 -112 -34 -12 3 -22 -2 -26 -13 -6 -15
-1 -16 40 -10 96 13 161 72 164 151 3 59 2 62 -22 85 -24 22 -38 26 -38 10z"/>
<path d="M1870 496 c0 -15 18 -31 26 -23 7 7 -7 37 -17 37 -5 0 -9 -6 -9 -14z"/>
<path d="M2040 489 c0 -5 5 -7 10 -4 6 3 10 8 10 11 0 2 -4 4 -10 4 -5 0 -10
-5 -10 -11z"/>
<path d="M330 470 c0 -19 3 -21 12 -12 9 9 9 15 0 24 -9 9 -12 7 -12 -12z"/>
<path d="M1450 480 c-12 -8 -13 -13 -2 -30 10 -16 10 -24 0 -41 -11 -17 -10
-22 5 -33 10 -8 16 -18 15 -22 -2 -5 1 -11 6 -14 5 -3 10 7 12 23 2 18 -2 27
-12 27 -8 0 -14 7 -14 15 0 17 21 20 37 4 11 -11 63 -2 63 11 0 14 -49 40 -63
34 -8 -3 -18 -1 -22 5 -4 7 1 8 12 4 16 -6 16 -5 4 10 -15 19 -20 20 -41 7z"/>
<path d="M2020 474 c0 -2 20 -13 43 -24 34 -16 50 -19 70 -11 18 7 25 15 21
26 -6 14 -8 14 -19 -1 -7 -11 -19 -15 -31 -11 -10 3 -34 10 -51 15 -18 6 -33
9 -33 6z"/>
<path d="M950 456 c0 -14 36 -32 53 -28 4 1 7 -2 7 -8 0 -14 -33 -13 -48 2 -6
6 -15 8 -19 4 -10 -10 15 -24 55 -32 37 -7 54 2 32 17 -11 8 -12 12 -2 16 17
7 15 26 -3 19 -9 -3 -15 0 -15 9 0 10 -10 15 -30 15 -19 0 -30 -5 -30 -14z"/>
<path d="M2375 461 c-6 -11 9 -23 19 -14 9 9 7 23 -3 23 -6 0 -12 -4 -16 -9z"/>
<path d="M1571 441 c12 -18 49 -18 49 1 0 5 -9 6 -20 3 -11 -4 -20 -2 -20 4 0
6 -5 11 -10 11 -6 0 -6 -7 1 -19z"/>
<path d="M2430 449 c0 -5 5 -7 10 -4 6 3 10 8 10 11 0 2 -4 4 -10 4 -5 0 -10
-5 -10 -11z"/>
<path d="M1653 443 c-12 -2 -24 -11 -27 -19 -4 -11 0 -13 18 -8 18 4 27 0 36
-16 9 -16 19 -21 43 -19 18 2 37 0 44 -4 6 -4 13 -1 16 5 3 9 12 6 28 -9 l23
-23 -22 0 c-32 0 -27 -17 7 -22 17 -2 28 -1 25 4 -3 4 2 8 11 8 12 0 9 8 -13
30 -23 22 -40 30 -67 30 -28 0 -38 5 -42 19 -4 16 -36 34 -53 30 -3 -1 -15 -4
-27 -6z"/>
<path d="M1375 429 c-4 -6 -5 -12 -2 -15 2 -3 7 2 10 11 7 17 1 20 -8 4z"/>
<path d="M1412 431 c-7 -4 -10 -15 -7 -24 5 -12 2 -14 -13 -10 -11 2 -23 0
-26 -6 -9 -14 43 -26 56 -13 15 15 6 63 -10 53z"/>
<path d="M1970 436 c0 -2 7 -9 15 -16 9 -7 15 -8 15 -2 0 5 -7 12 -15 16 -8 3
-15 4 -15 2z"/>
<path d="M2016 425 c-9 -26 -7 -55 5 -55 6 0 8 9 4 20 -5 14 -2 20 10 20 9 0
15 5 13 12 -7 19 -25 20 -32 3z"/>
<path d="M1856 421 c-3 -4 6 -13 19 -19 14 -7 25 -16 25 -22 0 -6 -4 -9 -9 -5
-5 3 -12 1 -16 -4 -9 -15 26 -29 87 -36 45 -5 57 -3 62 10 5 13 1 15 -15 10
-15 -5 -19 -4 -14 5 6 9 3 9 -14 1 -14 -8 -21 -8 -21 -1 0 5 -5 10 -11 10 -5
0 -8 -4 -5 -8 2 -4 -4 -8 -15 -8 -10 0 -19 4 -19 8 0 4 6 8 14 8 8 0 16 6 19
14 4 10 -7 20 -34 30 -46 19 -46 19 -53 7z"/>
<path d="M2137 409 c-12 -10 -17 -18 -10 -19 6 0 19 7 27 16 9 8 16 11 16 5 0
-6 19 -11 42 -11 50 0 47 6 -10 18 -36 8 -46 7 -65 -9z"/>
<path d="M458 408 c5 -5 16 -8 23 -6 8 3 3 7 -10 11 -17 4 -21 3 -13 -5z"/>
<path d="M815 410 c4 -6 11 -8 16 -5 14 9 11 15 -7 15 -8 0 -12 -5 -9 -10z"/>
<path d="M420 394 c0 -8 32 -33 43 -34 4 0 -2 9 -13 20 -21 21 -30 25 -30 14z"/>
<path d="M1070 390 c0 -4 11 -10 25 -12 13 -3 22 -2 20 2 -7 11 -45 20 -45 10z"/>
<path d="M1561 385 c-5 -5 -11 -22 -15 -37 -5 -21 -3 -28 9 -28 9 0 15 9 15
25 0 14 3 25 8 26 53 5 73 24 26 24 -20 0 -39 -4 -43 -10z"/>
<path d="M2047 369 c-3 -19 -8 -41 -12 -50 -4 -12 1 -18 22 -22 15 -3 39 -16
53 -29 26 -24 80 -52 86 -45 2 2 -18 19 -45 37 -49 34 -59 57 -18 44 12 -4 38
-8 57 -9 29 -1 35 -5 32 -21 -2 -15 6 -22 36 -30 43 -11 91 -4 58 9 -10 4 -34
7 -54 7 -28 0 -33 3 -22 10 8 5 26 10 40 11 21 1 19 2 -10 10 -19 5 -43 14
-53 20 -10 5 -22 7 -27 4 -6 -4 -16 -3 -22 1 -18 11 -48 12 -54 2 -7 -11 -51
-10 -59 1 -3 6 3 14 12 20 14 8 15 10 3 11 -11 0 -12 2 -3 8 10 7 10 12 0 27
-13 17 -14 15 -20 -16z"/>
<path d="M2082 388 c5 -15 28 -23 28 -10 0 5 -7 13 -16 16 -10 4 -14 1 -12 -6z"/>
<path d="M1510 376 c0 -9 5 -16 10 -16 6 0 10 4 10 9 0 6 -4 13 -10 16 -5 3
-10 -1 -10 -9z"/>
<path d="M2281 370 c-30 -11 -58 -17 -62 -14 -5 3 -19 -5 -31 -17 -13 -12 -18
-19 -12 -16 11 6 63 18 99 22 11 1 24 -3 28 -9 5 -6 7 -2 4 12 -4 15 0 22 10
22 8 0 11 -5 8 -10 -8 -12 17 -9 26 3 3 5 9 1 12 -8 4 -9 1 -18 -8 -21 -8 -4
-12 -10 -9 -16 9 -13 34 11 34 33 0 11 7 19 18 20 14 0 14 2 -3 9 -31 13 -55
11 -114 -10z"/>
<path d="M1170 371 c0 -4 10 -7 23 -7 12 1 21 -4 20 -11 -2 -7 3 -10 10 -7 7
2 23 -5 35 -16 20 -19 21 -21 5 -40 -10 -11 -23 -20 -30 -20 -7 0 -13 -5 -13
-11 0 -6 -7 -8 -16 -5 -8 3 -12 2 -9 -3 8 -13 -18 -19 -105 -25 -42 -3 -100
-11 -130 -17 -47 -11 -51 -13 -30 -19 14 -4 34 -3 46 1 11 4 46 10 77 14 42 5
57 4 57 -5 0 -9 4 -9 13 -2 7 6 24 13 37 15 41 7 63 18 99 51 19 17 31 26 27
19 -3 -6 -2 -14 4 -18 5 -3 10 1 10 11 0 11 6 15 20 11 21 -5 28 7 10 18 -6 4
-18 1 -27 -7 -14 -11 -15 -10 -10 7 5 15 -1 25 -23 40 -16 11 -25 22 -20 25 4
3 -12 6 -36 7 -24 1 -44 -2 -44 -6z"/>
<path d="M412 351 c6 -11 20 -19 30 -18 17 1 16 3 -4 19 -30 23 -41 23 -26 -1z"/>
<path d="M676 362 c-2 -4 4 -8 14 -8 10 0 16 4 14 8 -3 4 -9 8 -14 8 -5 0 -11
-4 -14 -8z"/>
<path d="M765 360 c-3 -5 -1 -10 4 -10 6 0 11 5 11 10 0 6 -2 10 -4 10 -3 0
-8 -4 -11 -10z"/>
<path d="M1319 356 c13 -7 32 -11 42 -9 30 8 13 20 -28 21 -37 1 -37 1 -14
-12z"/>
<path d="M1620 363 c-35 -7 -57 -43 -25 -43 8 0 15 -4 15 -10 0 -13 77 -2 114
16 37 18 46 17 23 -1 -22 -16 -15 -55 9 -55 11 0 13 6 9 20 -3 10 -1 30 6 42
6 13 8 20 4 16 -5 -4 -14 -3 -21 3 -8 6 -22 8 -31 4 -10 -5 -27 -10 -37 -12
-11 -2 -26 -8 -33 -15 -22 -18 -28 0 -8 22 10 11 14 19 9 19 -5 -1 -20 -4 -34
-6z"/>
<path d="M1388 304 c14 -11 15 -13 1 -14 -8 0 -24 -8 -35 -17 -65 -58 -65 -58
-75 -43 -8 12 -9 11 -7 -5 3 -19 16 -34 29 -35 3 0 26 20 52 44 63 61 117 70
202 35 17 -7 33 -12 38 -11 4 1 7 -2 7 -8 0 -5 12 -9 28 -9 15 1 54 0 87 -1
41 -1 78 5 115 19 30 12 60 21 67 21 18 0 66 20 61 26 -5 4 -69 -10 -179 -40
-49 -14 -63 -14 -120 -1 -35 7 -82 20 -104 28 -22 8 -73 17 -112 19 -62 4 -70
3 -55 -8z"/>
<path d="M1980 301 c0 -9 30 -24 36 -18 2 1 -6 8 -16 15 -11 7 -20 8 -20 3z"/>
<path d="M580 282 c0 -13 49 -22 56 -11 3 5 -1 9 -10 9 -8 0 -21 3 -30 6 -9 3
-16 2 -16 -4z"/>
<path d="M425 271 c-3 -6 -2 -11 4 -11 5 0 12 -9 16 -19 3 -10 15 -21 27 -24
18 -5 17 -2 -8 26 -16 18 -30 33 -30 35 -1 2 -5 -1 -9 -7z"/>
<path d="M2190 270 c0 -5 5 -10 10 -10 6 0 10 5 10 10 0 6 -4 10 -10 10 -5 0
-10 -4 -10 -10z"/>
<path d="M503 255 c0 -8 4 -12 9 -9 5 3 6 10 3 15 -9 13 -12 11 -12 -6z"/>
<path d="M665 253 c22 -15 32 -16 39 -4 3 5 -8 11 -26 13 -28 5 -29 4 -13 -9z"/>
<path d="M1452 253 c2 -38 -19 -68 -47 -71 -16 -1 -34 3 -41 9 -10 8 -18 7
-30 -6 -11 -11 -24 -14 -38 -10 -12 4 -43 8 -71 10 -36 2 -43 1 -25 -5 34 -11
32 -11 -102 -13 -64 -1 -120 -6 -124 -10 -16 -15 17 -24 64 -16 26 4 75 8 110
8 37 1 76 8 94 17 29 15 30 15 24 -1 -5 -15 -2 -16 31 -9 21 4 58 8 83 9 67 2
70 3 80 30 6 16 14 23 25 19 8 -3 15 -10 15 -15 0 -21 57 -36 130 -33 41 1 77
4 80 5 3 1 10 0 15 -1 6 -2 43 -3 83 -4 48 -2 69 1 62 8 -5 5 -27 10 -47 10
-21 0 -41 4 -45 10 -4 6 -12 5 -22 -3 -13 -11 -18 -10 -31 3 -20 19 -32 20
-38 4 -4 -10 -8 -10 -15 1 -7 9 -12 10 -16 2 -11 -17 -44 -13 -49 7 -4 13 -5
11 -6 -6 -1 -19 -5 -22 -28 -16 -16 3 -34 6 -41 6 -6 1 -12 6 -11 12 3 25 -14
54 -27 49 -8 -3 -21 0 -29 7 -11 9 -14 8 -13 -7z m-435 -99 c-3 -3 -12 -4 -19
-1 -8 3 -5 6 6 6 11 1 17 -2 13 -5z"/>
<path d="M1968 263 c6 -3 12 -11 12 -19 0 -11 6 -11 27 -3 14 5 34 7 42 4 12
-5 13 -3 4 6 -6 6 -31 12 -55 14 -23 2 -37 1 -30 -2z"/>
<path d="M2445 225 c-21 -19 -63 -41 -92 -50 -59 -19 -71 -30 -20 -20 40 9
121 52 143 77 29 32 11 28 -31 -7z"/>
<path d="M1920 240 c0 -5 4 -10 9 -10 6 0 13 5 16 10 3 6 -1 10 -9 10 -9 0
-16 -4 -16 -10z"/>
<path d="M500 211 c0 -10 120 -45 127 -37 6 6 1 8 -74 30 -29 8 -53 11 -53 7z"/>
<path d="M639 207 c6 -8 8 -17 4 -20 -3 -4 -1 -7 5 -7 14 0 14 2 6 24 -3 9
-11 16 -16 16 -7 0 -6 -5 1 -13z"/>
<path d="M1376 205 c4 -8 10 -15 15 -15 4 0 6 7 3 15 -4 8 -10 15 -15 15 -4 0
-6 -7 -3 -15z"/>
<path d="M1798 213 c7 -3 16 -2 19 1 4 3 -2 6 -13 5 -11 0 -14 -3 -6 -6z"/>
<path d="M1866 190 c24 -25 38 -30 74 -30 151 0 165 -2 185 -18 l20 -17 -20
24 c-20 24 -20 24 0 18 51 -14 135 -18 135 -7 0 7 7 10 15 6 22 -8 18 1 -12
32 -15 15 -21 20 -15 11 17 -23 5 -51 -16 -40 -10 4 -42 9 -72 10 -30 1 -73 7
-94 12 -24 7 -41 7 -45 1 -17 -26 -137 -16 -154 14 -4 8 -13 14 -20 14 -6 0 2
-14 19 -30z m194 -10 c12 -8 11 -10 -7 -10 -13 0 -23 5 -23 10 0 13 11 13 30
0z"/>
<path d="M2105 210 c3 -5 8 -10 11 -10 2 0 4 5 4 10 0 6 -5 10 -11 10 -5 0 -7
-4 -4 -10z"/>
<path d="M1935 200 c3 -5 11 -10 16 -10 6 0 7 5 4 10 -3 6 -11 10 -16 10 -6 0
-7 -4 -4 -10z"/>
<path d="M875 190 c-3 -5 1 -10 10 -10 9 0 13 5 10 10 -3 6 -8 10 -10 10 -2 0
-7 -4 -10 -10z"/>
<path d="M828 183 c6 -2 18 -2 25 0 6 3 1 5 -13 5 -14 0 -19 -2 -12 -5z"/>
<path d="M690 169 c0 -12 52 -20 63 -10 7 5 23 11 37 14 14 2 -3 4 -37 3 -35
-1 -63 -4 -63 -7z"/>
<path d="M1466 154 c-5 -14 -4 -15 9 -4 17 14 19 20 6 20 -5 0 -12 -7 -15 -16z"/>
<path d="M612 134 c19 -20 80 -26 133 -14 34 8 42 7 55 -8 11 -13 19 -15 26
-8 13 13 -46 48 -61 36 -6 -5 -34 -11 -63 -13 -40 -4 -55 -1 -59 9 -3 8 -15
14 -26 14 -19 0 -20 -1 -5 -16z"/>
<path d="M895 140 c3 -5 13 -10 21 -10 8 0 12 5 9 10 -3 6 -13 10 -21 10 -8 0
-12 -4 -9 -10z"/>
<path d="M1246 135 c4 -8 11 -15 16 -15 6 0 5 6 -2 15 -7 8 -14 15 -16 15 -2
0 -1 -7 2 -15z"/>
<path d="M1595 140 c-3 -5 -1 -10 4 -10 6 0 11 5 11 10 0 6 -2 10 -4 10 -3 0
-8 -4 -11 -10z"/>
<path d="M2265 140 c-4 -6 -11 -7 -17 -4 -7 4 -8 2 -4 -4 10 -17 33 -15 33 3
0 18 -3 19 -12 5z"/>
<path d="M470 130 c0 -5 5 -10 11 -10 5 0 7 5 4 10 -3 6 -8 10 -11 10 -2 0 -4
-4 -4 -10z"/>
<path d="M1185 130 c-4 -6 6 -10 22 -10 22 0 25 2 13 10 -19 12 -27 12 -35 0z"/>
<path d="M1388 133 c7 -3 16 -2 19 1 4 3 -2 6 -13 5 -11 0 -14 -3 -6 -6z"/>
<path d="M2168 133 c7 -3 16 -2 19 1 4 3 -2 6 -13 5 -11 0 -14 -3 -6 -6z"/>
<path d="M510 120 c8 -5 22 -9 30 -9 10 0 8 3 -5 9 -27 12 -43 12 -25 0z"/>
<path d="M585 120 c3 -5 11 -10 16 -10 6 0 7 5 4 10 -3 6 -11 10 -16 10 -6 0
-7 -4 -4 -10z"/>
<path d="M850 126 c0 -2 9 -6 20 -9 11 -3 18 -1 14 4 -5 9 -34 13 -34 5z"/>
<path d="M963 119 c-32 -12 -29 -19 7 -16 16 1 30 5 30 9 0 13 -15 16 -37 7z"/>
<path d="M1095 120 c-2 -3 7 -7 21 -8 13 -1 24 2 24 6 0 9 -40 11 -45 2z"/>
<path d="M2290 126 c0 -2 9 -6 20 -9 11 -3 20 -1 20 4 0 5 -9 9 -20 9 -11 0
-20 -2 -20 -4z"/>
<path d="M740 98 c0 -5 -10 -6 -22 -2 -13 3 -19 3 -15 -2 11 -11 87 -12 87 -2
0 5 -3 8 -7 9 -5 0 -16 2 -25 4 -10 2 -18 -1 -18 -7z"/>
<path d="M906 98 c3 -4 9 -8 15 -8 5 0 9 4 9 8 0 5 -7 9 -15 9 -8 0 -12 -4 -9
-9z"/>
</g>
</svg>
